<?xml version="1.0" standalone="no"?>
<!DOCTYPE svg PUBLIC "-//W3C//DTD SVG 20010904//EN"
 "http://www.w3.org/TR/2001/REC-SVG-20010904/DTD/svg10.dtd">
<svg version="1.0" xmlns="http://www.w3.org/2000/svg"
 width="480.000000pt" height="480.000000pt" viewBox="0 0 480.000000 480.000000"
 preserveAspectRatio="xMidYMid meet">
<metadata>
Created by potrace 1.11, written by Peter Selinger 2001-2013
</metadata>
<g transform="translate(0.000000,480.000000) scale(0.100000,-0.100000)"
fill="#000000" stroke="none">
<path d="M2800 3664 c-69 -36 -174 -91 -235 -122 -104 -54 -155 -70 -155 -50
0 5 -4 6 -10 3 -5 -3 -10 -2 -10 3 0 9 -37 25 -52 23 -5 -1 -8 4 -8 10 0 5 -4
8 -9 5 -5 -4 -11 -2 -13 3 -3 9 -165 94 -170 90 -2 -1 -22 10 -45 24 -24 15
-43 24 -43 20 0 -5 -4 -3 -8 4 -4 6 -14 13 -22 15 -8 2 -21 9 -28 16 -7 6 -16
12 -20 12 -4 0 -7 -109 -7 -243 l0 -242 -160 -84 c-140 -73 -214 -103 -201
-82 3 4 -22 18 -55 31 -32 14 -59 28 -59 33 0 4 -9 7 -20 7 -11 0 -20 4 -20 9
0 5 -15 15 -34 21 -19 6 -47 21 -62 33 -16 12 -24 15 -19 7 5 -9 0 -7 -13 4
-12 11 -22 15 -22 10 0 -5 -4 -4 -8 2 -4 6 -45 31 -92 54 -47 23 -88 47 -91
53 -4 5 -12 6 -18 3 -6 -4 -11 -2 -11 4 0 6 -4 9 -9 6 -5 -3 -14 1 -21 9 -7 8
-16 13 -20 10 -4 -3 -10 2 -14 10 -3 8 -12 15 -20 15 -8 0 -37 13 -65 29 -27
16 -52 27 -55 24 -3 -4 -6 0 -6 7 0 7 -3 11 -6 7 -4 -3 -13 1 -21 9 -8 8 -19
12 -24 9 -5 -4 -9 -2 -9 3 0 8 -32 22 -48 21 -1 0 -10 7 -18 16 -9 8 -22 15
-30 15 -8 0 -14 4 -14 8 0 5 -6 9 -12 9 -7 0 -37 14 -66 31 -28 17 -52 29 -52
26 0 -3 -12 4 -26 15 -15 11 -30 19 -34 16 -4 -3 -13 2 -20 10 -7 8 -16 12
-21 9 -5 -3 -9 -1 -9 4 0 4 -16 14 -35 22 -19 8 -35 18 -35 23 0 5 -7 7 -15 3
-8 -3 -15 -1 -15 4 0 6 -3 10 -8 10 -4 0 -7 -596 -7 -1325 0 -1179 1 -1325 15
-1319 8 3 23 9 32 11 10 3 18 9 18 14 0 4 16 13 35 20 19 7 35 17 35 22 0 4 4
6 9 2 5 -3 16 1 24 9 8 8 17 12 21 9 3 -4 6 -1 6 5 0 7 3 11 8 10 4 -1 50 20
102 47 52 27 110 55 128 64 17 8 32 19 32 24 0 4 4 6 9 2 5 -3 17 2 25 11 9 8
16 13 16 9 0 -3 13 3 29 14 15 11 31 18 35 14 3 -3 6 0 6 7 0 7 3 11 6 8 3 -3
37 12 76 33 39 21 75 39 79 39 5 0 9 5 9 11 0 5 4 8 9 5 5 -3 14 1 21 9 7 8
16 12 21 9 5 -3 9 0 9 6 0 6 4 9 9 6 5 -3 20 3 33 14 14 11 28 16 32 13 3 -3
6 0 6 7 0 7 3 11 6 7 3 -3 24 5 45 19 21 13 39 21 39 18 0 -4 9 1 20 11 12 11
29 20 38 21 9 2 18 8 20 14 2 5 8 8 13 4 5 -3 9 0 9 5 0 6 3 10 8 10 14 -3 72
23 72 32 0 5 6 9 13 9 6 0 33 11 58 24 l46 25 149 -76 c82 -41 158 -81 169
-88 20 -12 21 -22 20 -254 0 -132 1 -241 3 -241 8 0 228 116 233 123 3 5 9 8
13 8 9 -2 146 68 177 90 14 10 36 17 47 14 12 -2 122 -56 244 -119 123 -63
228 -115 233 -115 6 -1 10 87 10 245 l0 246 60 30 c33 17 62 34 63 39 2 5 7 7
12 4 5 -3 16 3 26 12 10 10 18 17 18 15 2 -6 66 23 66 31 0 4 4 6 9 2 5 -3 16
1 24 9 8 8 26 18 41 22 14 3 26 10 26 15 0 5 6 9 14 9 8 0 22 7 30 16 9 8 16
12 16 9 0 -4 11 0 25 9 14 9 25 13 25 9 0 -5 5 -1 10 7 5 8 13 15 17 15 4 1
19 7 31 14 13 7 27 10 30 6 4 -4 7 -67 8 -141 0 -74 3 -136 5 -138 2 -1 18
-10 34 -18 17 -8 107 -54 200 -103 94 -48 249 -128 345 -178 96 -49 221 -114
278 -143 l102 -53 0 639 0 640 50 25 c28 14 50 27 50 30 0 3 -22 16 -50 30
l-50 25 0 639 0 639 -52 -27 c-29 -15 -152 -79 -273 -141 -121 -62 -256 -132
-300 -155 -44 -23 -138 -72 -210 -108 l-130 -66 1 -141 c2 -141 -3 -159 -34
-128 -7 7 -12 9 -12 4 0 -4 -13 2 -29 13 -15 11 -31 18 -35 14 -3 -3 -6 -1 -6
6 0 7 -4 10 -9 7 -5 -4 -11 -3 -13 1 -4 11 -80 49 -90 45 -4 -1 -8 3 -8 9 0 5
-4 8 -9 5 -5 -4 -11 -2 -13 3 -3 8 -102 62 -113 61 -3 0 -13 6 -21 15 -9 8
-20 13 -25 10 -5 -4 -9 -2 -9 3 0 8 -28 20 -47 20 -3 0 -9 5 -12 10 -3 6 -13
12 -21 14 -43 9 -44 20 -45 279 0 137 0 249 0 249 0 -1 -56 -30 -125 -66z"/>
</g>
</svg>
